<svg xmlns="http://www.w3.org/2000/svg" width="220" height="28" viewBox="0 0 220 28" role="img" aria-label="INFINITY LEARNING">
  <rect width="220" height="28" rx="6" fill="#0B1220"></rect>
  <!-- infinity icon -->
  <path d="M22 17c-2.3 0-4.2-1.9-4.2-4.2S19.7 8.6 22 8.6c1.6 0 3 .8 4.2 2.1l1.3 1.4 1.3-1.4c1.2-1.3 2.6-2.1 4.2-2.1 2.3 0 4.2 1.9 4.2 4.2S35.3 17 33 17c-1.6 0-3-.8-4.2-2.1l-1.3-1.4-1.3 1.4C25 16.2 23.6 17 22 17zm0-6.5c-1 0-1.8.8-1.8 1.8S21 14.1 22 14.1c.9 0 1.8-.6 2.6-1.5l.3-.3-.3-.3c-.8-.9-1.7-1.5-2.6-1.5zm11 0c-.9 0-1.8.6-2.6 1.5l-.3.3.3.3c.8.9 1.7 1.5 2.6 1.5 1 0 1.8-.8 1.8-1.8S34 10.5 33 10.5z" fill="#F4D35E"></path>
  <text x="48" y="19" fill="#FFFFFF" font-family="Verdana,Arial,sans-serif" font-size="12" font-weight="700" letter-spacing="0.6">INFINITY LEARNING</text>
</svg>
